<?xml version="1.0" encoding="utf-8"?>
<!-- Designed by Vexels.com - 2019 All Rights Reserved - https://vexels.com/terms-and-conditions/  -->
<svg version="1.1" id="Layer_1" xmlns="http://www.w3.org/2000/svg" xmlns:xlink="http://www.w3.org/1999/xlink" x="0px" y="0px"
	 viewBox="0 0 1200 1200" enable-background="new 0 0 1200 1200" xml:space="preserve">
<g>
	<g>
		<defs>
			<path id="SVGID_1_" d="M135.581,741.395c25.912-42.081,73.146-65.063,111.424-96.322
				c75.353-61.535,115.886-155.765,143.265-249.12c13.314-45.396,25.329-93.618,57.731-128.087
				c28.435-30.248,69.079-45.837,109.35-55.923c70.104-17.558,143.648-21.266,215.163-10.845
				c28.152,4.102,56.418,10.528,81.354,24.223c32.362,17.773,56.978,46.496,82.769,72.915
				c42.735,43.775,90.506,82.63,142.069,115.552c17.415,11.119,35.898,22.176,46.963,39.626
				c15.074,23.772,13.193,54.747,4.949,81.661c-23.821,77.777-93.45,133.597-167.521,167.213
				c-74.071,33.617-154.781,49.745-231.106,77.873c-111.513,41.096-213.345,108.209-295.086,194.479
				c-15.86,16.738-31.1,34.299-49.529,48.159c-52.486,39.471-129.57,42.616-185.096,7.55
				c-44.267-27.956-72.489-78.663-75.488-130.655c-0.679-11.776,1.465-23.734,0.214-35.43c-1.417-13.246-7.085-25.698-8.82-38.975
				C114.417,796.455,120.291,766.227,135.581,741.395z"/>
		</defs>
		<clipPath id="SVGID_2_">
			<use xlink:href="#SVGID_1_"  overflow="visible"/>
		</clipPath>
		<linearGradient id="SVGID_3_" gradientUnits="userSpaceOnUse" x1="99.3082" y1="600" x2="101.3082" y2="600">
			<stop  offset="0" style="stop-color:#D66D75"/>
			<stop  offset="1" style="stop-color:#E29587"/>
		</linearGradient>
		
			<line clip-path="url(#SVGID_2_)" fill="none" stroke="url(#SVGID_3_)" stroke-width="2" stroke-miterlimit="10" x1="100.308" y1="50" x2="100.308" y2="1150"/>
		<linearGradient id="SVGID_4_" gradientUnits="userSpaceOnUse" x1="124.8667" y1="600" x2="126.8667" y2="600">
			<stop  offset="0" style="stop-color:#D66D75"/>
			<stop  offset="1" style="stop-color:#E29587"/>
		</linearGradient>
		
			<line clip-path="url(#SVGID_2_)" fill="none" stroke="url(#SVGID_4_)" stroke-width="2" stroke-miterlimit="10" x1="125.867" y1="50" x2="125.867" y2="1150"/>
		<linearGradient id="SVGID_5_" gradientUnits="userSpaceOnUse" x1="150.4253" y1="600" x2="152.4253" y2="600">
			<stop  offset="0" style="stop-color:#D66D75"/>
			<stop  offset="1" style="stop-color:#E29587"/>
		</linearGradient>
		
			<line clip-path="url(#SVGID_2_)" fill="none" stroke="url(#SVGID_5_)" stroke-width="2" stroke-miterlimit="10" x1="151.425" y1="50" x2="151.425" y2="1150"/>
		<linearGradient id="SVGID_6_" gradientUnits="userSpaceOnUse" x1="175.9838" y1="600" x2="177.9838" y2="600">
			<stop  offset="0" style="stop-color:#D66D75"/>
			<stop  offset="1" style="stop-color:#E29587"/>
		</linearGradient>
		
			<line clip-path="url(#SVGID_2_)" fill="none" stroke="url(#SVGID_6_)" stroke-width="2" stroke-miterlimit="10" x1="176.984" y1="50" x2="176.984" y2="1150"/>
		<linearGradient id="SVGID_7_" gradientUnits="userSpaceOnUse" x1="201.5424" y1="600" x2="203.5424" y2="600">
			<stop  offset="0" style="stop-color:#D66D75"/>
			<stop  offset="1" style="stop-color:#E29587"/>
		</linearGradient>
		
			<line clip-path="url(#SVGID_2_)" fill="none" stroke="url(#SVGID_7_)" stroke-width="2" stroke-miterlimit="10" x1="202.542" y1="50" x2="202.542" y2="1150"/>
		<linearGradient id="SVGID_8_" gradientUnits="userSpaceOnUse" x1="227.1009" y1="600" x2="229.1009" y2="600">
			<stop  offset="0" style="stop-color:#D66D75"/>
			<stop  offset="1" style="stop-color:#E29587"/>
		</linearGradient>
		
			<line clip-path="url(#SVGID_2_)" fill="none" stroke="url(#SVGID_8_)" stroke-width="2" stroke-miterlimit="10" x1="228.101" y1="50" x2="228.101" y2="1150"/>
		<linearGradient id="SVGID_9_" gradientUnits="userSpaceOnUse" x1="252.6594" y1="600" x2="254.6594" y2="600">
			<stop  offset="0" style="stop-color:#D66D75"/>
			<stop  offset="1" style="stop-color:#E29587"/>
		</linearGradient>
		
			<line clip-path="url(#SVGID_2_)" fill="none" stroke="url(#SVGID_9_)" stroke-width="2" stroke-miterlimit="10" x1="253.659" y1="50" x2="253.659" y2="1150"/>
		<linearGradient id="SVGID_10_" gradientUnits="userSpaceOnUse" x1="278.218" y1="600" x2="280.218" y2="600">
			<stop  offset="0" style="stop-color:#D66D75"/>
			<stop  offset="1" style="stop-color:#E29587"/>
		</linearGradient>
		
			<line clip-path="url(#SVGID_2_)" fill="none" stroke="url(#SVGID_10_)" stroke-width="2" stroke-miterlimit="10" x1="279.218" y1="50" x2="279.218" y2="1150"/>
		<linearGradient id="SVGID_11_" gradientUnits="userSpaceOnUse" x1="303.7765" y1="600" x2="305.7765" y2="600">
			<stop  offset="0" style="stop-color:#D66D75"/>
			<stop  offset="1" style="stop-color:#E29587"/>
		</linearGradient>
		
			<line clip-path="url(#SVGID_2_)" fill="none" stroke="url(#SVGID_11_)" stroke-width="2" stroke-miterlimit="10" x1="304.776" y1="50" x2="304.776" y2="1150"/>
		<linearGradient id="SVGID_12_" gradientUnits="userSpaceOnUse" x1="329.335" y1="600" x2="331.335" y2="600">
			<stop  offset="0" style="stop-color:#D66D75"/>
			<stop  offset="1" style="stop-color:#E29587"/>
		</linearGradient>
		
			<line clip-path="url(#SVGID_2_)" fill="none" stroke="url(#SVGID_12_)" stroke-width="2" stroke-miterlimit="10" x1="330.335" y1="50" x2="330.335" y2="1150"/>
		<linearGradient id="SVGID_13_" gradientUnits="userSpaceOnUse" x1="354.8936" y1="600" x2="356.8936" y2="600">
			<stop  offset="0" style="stop-color:#D66D75"/>
			<stop  offset="1" style="stop-color:#E29587"/>
		</linearGradient>
		
			<line clip-path="url(#SVGID_2_)" fill="none" stroke="url(#SVGID_13_)" stroke-width="2" stroke-miterlimit="10" x1="355.894" y1="50" x2="355.894" y2="1150"/>
		<linearGradient id="SVGID_14_" gradientUnits="userSpaceOnUse" x1="380.4521" y1="600" x2="382.4521" y2="600">
			<stop  offset="0" style="stop-color:#D66D75"/>
			<stop  offset="1" style="stop-color:#E29587"/>
		</linearGradient>
		
			<line clip-path="url(#SVGID_2_)" fill="none" stroke="url(#SVGID_14_)" stroke-width="2" stroke-miterlimit="10" x1="381.452" y1="50" x2="381.452" y2="1150"/>
		<linearGradient id="SVGID_15_" gradientUnits="userSpaceOnUse" x1="406.0106" y1="600" x2="408.0106" y2="600">
			<stop  offset="0" style="stop-color:#D66D75"/>
			<stop  offset="1" style="stop-color:#E29587"/>
		</linearGradient>
		
			<line clip-path="url(#SVGID_2_)" fill="none" stroke="url(#SVGID_15_)" stroke-width="2" stroke-miterlimit="10" x1="407.011" y1="50" x2="407.011" y2="1150"/>
		<linearGradient id="SVGID_16_" gradientUnits="userSpaceOnUse" x1="431.5692" y1="600" x2="433.5692" y2="600">
			<stop  offset="0" style="stop-color:#D66D75"/>
			<stop  offset="1" style="stop-color:#E29587"/>
		</linearGradient>
		
			<line clip-path="url(#SVGID_2_)" fill="none" stroke="url(#SVGID_16_)" stroke-width="2" stroke-miterlimit="10" x1="432.569" y1="50" x2="432.569" y2="1150"/>
		<linearGradient id="SVGID_17_" gradientUnits="userSpaceOnUse" x1="457.1277" y1="600" x2="459.1277" y2="600">
			<stop  offset="0" style="stop-color:#D66D75"/>
			<stop  offset="1" style="stop-color:#E29587"/>
		</linearGradient>
		
			<line clip-path="url(#SVGID_2_)" fill="none" stroke="url(#SVGID_17_)" stroke-width="2" stroke-miterlimit="10" x1="458.128" y1="50" x2="458.128" y2="1150"/>
		<linearGradient id="SVGID_18_" gradientUnits="userSpaceOnUse" x1="482.6862" y1="600" x2="484.6862" y2="600">
			<stop  offset="0" style="stop-color:#D66D75"/>
			<stop  offset="1" style="stop-color:#E29587"/>
		</linearGradient>
		
			<line clip-path="url(#SVGID_2_)" fill="none" stroke="url(#SVGID_18_)" stroke-width="2" stroke-miterlimit="10" x1="483.686" y1="50" x2="483.686" y2="1150"/>
		<linearGradient id="SVGID_19_" gradientUnits="userSpaceOnUse" x1="508.2448" y1="600" x2="510.2448" y2="600">
			<stop  offset="0" style="stop-color:#D66D75"/>
			<stop  offset="1" style="stop-color:#E29587"/>
		</linearGradient>
		
			<line clip-path="url(#SVGID_2_)" fill="none" stroke="url(#SVGID_19_)" stroke-width="2" stroke-miterlimit="10" x1="509.245" y1="50" x2="509.245" y2="1150"/>
		<linearGradient id="SVGID_20_" gradientUnits="userSpaceOnUse" x1="533.8033" y1="600" x2="535.8033" y2="600">
			<stop  offset="0" style="stop-color:#D66D75"/>
			<stop  offset="1" style="stop-color:#E29587"/>
		</linearGradient>
		
			<line clip-path="url(#SVGID_2_)" fill="none" stroke="url(#SVGID_20_)" stroke-width="2" stroke-miterlimit="10" x1="534.803" y1="50" x2="534.803" y2="1150"/>
		<linearGradient id="SVGID_21_" gradientUnits="userSpaceOnUse" x1="559.3618" y1="600" x2="561.3618" y2="600">
			<stop  offset="0" style="stop-color:#D66D75"/>
			<stop  offset="1" style="stop-color:#E29587"/>
		</linearGradient>
		
			<line clip-path="url(#SVGID_2_)" fill="none" stroke="url(#SVGID_21_)" stroke-width="2" stroke-miterlimit="10" x1="560.362" y1="50" x2="560.362" y2="1150"/>
		<linearGradient id="SVGID_22_" gradientUnits="userSpaceOnUse" x1="584.9203" y1="600" x2="586.9203" y2="600">
			<stop  offset="0" style="stop-color:#D66D75"/>
			<stop  offset="1" style="stop-color:#E29587"/>
		</linearGradient>
		
			<line clip-path="url(#SVGID_2_)" fill="none" stroke="url(#SVGID_22_)" stroke-width="2" stroke-miterlimit="10" x1="585.92" y1="50" x2="585.92" y2="1150"/>
		<linearGradient id="SVGID_23_" gradientUnits="userSpaceOnUse" x1="610.4789" y1="600" x2="612.4789" y2="600">
			<stop  offset="0" style="stop-color:#D66D75"/>
			<stop  offset="1" style="stop-color:#E29587"/>
		</linearGradient>
		
			<line clip-path="url(#SVGID_2_)" fill="none" stroke="url(#SVGID_23_)" stroke-width="2" stroke-miterlimit="10" x1="611.479" y1="50" x2="611.479" y2="1150"/>
		<linearGradient id="SVGID_24_" gradientUnits="userSpaceOnUse" x1="636.0374" y1="600" x2="638.0374" y2="600">
			<stop  offset="0" style="stop-color:#D66D75"/>
			<stop  offset="1" style="stop-color:#E29587"/>
		</linearGradient>
		
			<line clip-path="url(#SVGID_2_)" fill="none" stroke="url(#SVGID_24_)" stroke-width="2" stroke-miterlimit="10" x1="637.037" y1="50" x2="637.037" y2="1150"/>
		<linearGradient id="SVGID_25_" gradientUnits="userSpaceOnUse" x1="661.5959" y1="600" x2="663.5959" y2="600">
			<stop  offset="0" style="stop-color:#D66D75"/>
			<stop  offset="1" style="stop-color:#E29587"/>
		</linearGradient>
		
			<line clip-path="url(#SVGID_2_)" fill="none" stroke="url(#SVGID_25_)" stroke-width="2" stroke-miterlimit="10" x1="662.596" y1="50" x2="662.596" y2="1150"/>
		<linearGradient id="SVGID_26_" gradientUnits="userSpaceOnUse" x1="687.1545" y1="600" x2="689.1545" y2="600">
			<stop  offset="0" style="stop-color:#D66D75"/>
			<stop  offset="1" style="stop-color:#E29587"/>
		</linearGradient>
		
			<line clip-path="url(#SVGID_2_)" fill="none" stroke="url(#SVGID_26_)" stroke-width="2" stroke-miterlimit="10" x1="688.154" y1="50" x2="688.154" y2="1150"/>
		<linearGradient id="SVGID_27_" gradientUnits="userSpaceOnUse" x1="712.713" y1="600" x2="714.713" y2="600">
			<stop  offset="0" style="stop-color:#D66D75"/>
			<stop  offset="1" style="stop-color:#E29587"/>
		</linearGradient>
		
			<line clip-path="url(#SVGID_2_)" fill="none" stroke="url(#SVGID_27_)" stroke-width="2" stroke-miterlimit="10" x1="713.713" y1="50" x2="713.713" y2="1150"/>
		<linearGradient id="SVGID_28_" gradientUnits="userSpaceOnUse" x1="738.2715" y1="600" x2="740.2715" y2="600">
			<stop  offset="0" style="stop-color:#D66D75"/>
			<stop  offset="1" style="stop-color:#E29587"/>
		</linearGradient>
		
			<line clip-path="url(#SVGID_2_)" fill="none" stroke="url(#SVGID_28_)" stroke-width="2" stroke-miterlimit="10" x1="739.272" y1="50" x2="739.272" y2="1150"/>
		<linearGradient id="SVGID_29_" gradientUnits="userSpaceOnUse" x1="763.8301" y1="600" x2="765.8301" y2="600">
			<stop  offset="0" style="stop-color:#D66D75"/>
			<stop  offset="1" style="stop-color:#E29587"/>
		</linearGradient>
		
			<line clip-path="url(#SVGID_2_)" fill="none" stroke="url(#SVGID_29_)" stroke-width="2" stroke-miterlimit="10" x1="764.83" y1="50" x2="764.83" y2="1150"/>
		<linearGradient id="SVGID_30_" gradientUnits="userSpaceOnUse" x1="789.3887" y1="600" x2="791.3887" y2="600">
			<stop  offset="0" style="stop-color:#D66D75"/>
			<stop  offset="1" style="stop-color:#E29587"/>
		</linearGradient>
		
			<line clip-path="url(#SVGID_2_)" fill="none" stroke="url(#SVGID_30_)" stroke-width="2" stroke-miterlimit="10" x1="790.389" y1="50" x2="790.389" y2="1150"/>
		<linearGradient id="SVGID_31_" gradientUnits="userSpaceOnUse" x1="814.9472" y1="600" x2="816.9472" y2="600">
			<stop  offset="0" style="stop-color:#D66D75"/>
			<stop  offset="1" style="stop-color:#E29587"/>
		</linearGradient>
		
			<line clip-path="url(#SVGID_2_)" fill="none" stroke="url(#SVGID_31_)" stroke-width="2" stroke-miterlimit="10" x1="815.947" y1="50" x2="815.947" y2="1150"/>
		<linearGradient id="SVGID_32_" gradientUnits="userSpaceOnUse" x1="840.5057" y1="600" x2="842.5057" y2="600">
			<stop  offset="0" style="stop-color:#D66D75"/>
			<stop  offset="1" style="stop-color:#E29587"/>
		</linearGradient>
		
			<line clip-path="url(#SVGID_2_)" fill="none" stroke="url(#SVGID_32_)" stroke-width="2" stroke-miterlimit="10" x1="841.506" y1="50" x2="841.506" y2="1150"/>
		<linearGradient id="SVGID_33_" gradientUnits="userSpaceOnUse" x1="866.0643" y1="600" x2="868.0643" y2="600">
			<stop  offset="0" style="stop-color:#D66D75"/>
			<stop  offset="1" style="stop-color:#E29587"/>
		</linearGradient>
		
			<line clip-path="url(#SVGID_2_)" fill="none" stroke="url(#SVGID_33_)" stroke-width="2" stroke-miterlimit="10" x1="867.064" y1="50" x2="867.064" y2="1150"/>
		<linearGradient id="SVGID_34_" gradientUnits="userSpaceOnUse" x1="891.6228" y1="600" x2="893.6228" y2="600">
			<stop  offset="0" style="stop-color:#D66D75"/>
			<stop  offset="1" style="stop-color:#E29587"/>
		</linearGradient>
		
			<line clip-path="url(#SVGID_2_)" fill="none" stroke="url(#SVGID_34_)" stroke-width="2" stroke-miterlimit="10" x1="892.623" y1="50" x2="892.623" y2="1150"/>
		<linearGradient id="SVGID_35_" gradientUnits="userSpaceOnUse" x1="917.1813" y1="600" x2="919.1813" y2="600">
			<stop  offset="0" style="stop-color:#D66D75"/>
			<stop  offset="1" style="stop-color:#E29587"/>
		</linearGradient>
		
			<line clip-path="url(#SVGID_2_)" fill="none" stroke="url(#SVGID_35_)" stroke-width="2" stroke-miterlimit="10" x1="918.181" y1="50" x2="918.181" y2="1150"/>
		<linearGradient id="SVGID_36_" gradientUnits="userSpaceOnUse" x1="942.7399" y1="600" x2="944.7399" y2="600">
			<stop  offset="0" style="stop-color:#D66D75"/>
			<stop  offset="1" style="stop-color:#E29587"/>
		</linearGradient>
		
			<line clip-path="url(#SVGID_2_)" fill="none" stroke="url(#SVGID_36_)" stroke-width="2" stroke-miterlimit="10" x1="943.74" y1="50" x2="943.74" y2="1150"/>
		<linearGradient id="SVGID_37_" gradientUnits="userSpaceOnUse" x1="968.2984" y1="600" x2="970.2984" y2="600">
			<stop  offset="0" style="stop-color:#D66D75"/>
			<stop  offset="1" style="stop-color:#E29587"/>
		</linearGradient>
		
			<line clip-path="url(#SVGID_2_)" fill="none" stroke="url(#SVGID_37_)" stroke-width="2" stroke-miterlimit="10" x1="969.298" y1="50" x2="969.298" y2="1150"/>
		<linearGradient id="SVGID_38_" gradientUnits="userSpaceOnUse" x1="993.8569" y1="600" x2="995.8569" y2="600">
			<stop  offset="0" style="stop-color:#D66D75"/>
			<stop  offset="1" style="stop-color:#E29587"/>
		</linearGradient>
		
			<line clip-path="url(#SVGID_2_)" fill="none" stroke="url(#SVGID_38_)" stroke-width="2" stroke-miterlimit="10" x1="994.857" y1="50" x2="994.857" y2="1150"/>
		<linearGradient id="SVGID_39_" gradientUnits="userSpaceOnUse" x1="1019.4155" y1="600" x2="1021.4155" y2="600">
			<stop  offset="0" style="stop-color:#D66D75"/>
			<stop  offset="1" style="stop-color:#E29587"/>
		</linearGradient>
		
			<line clip-path="url(#SVGID_2_)" fill="none" stroke="url(#SVGID_39_)" stroke-width="2" stroke-miterlimit="10" x1="1020.415" y1="50" x2="1020.415" y2="1150"/>
		<linearGradient id="SVGID_40_" gradientUnits="userSpaceOnUse" x1="1044.974" y1="600" x2="1046.974" y2="600">
			<stop  offset="0" style="stop-color:#D66D75"/>
			<stop  offset="1" style="stop-color:#E29587"/>
		</linearGradient>
		
			<line clip-path="url(#SVGID_2_)" fill="none" stroke="url(#SVGID_40_)" stroke-width="2" stroke-miterlimit="10" x1="1045.974" y1="50" x2="1045.974" y2="1150"/>
		<linearGradient id="SVGID_41_" gradientUnits="userSpaceOnUse" x1="1070.5325" y1="600" x2="1072.5325" y2="600">
			<stop  offset="0" style="stop-color:#D66D75"/>
			<stop  offset="1" style="stop-color:#E29587"/>
		</linearGradient>
		
			<line clip-path="url(#SVGID_2_)" fill="none" stroke="url(#SVGID_41_)" stroke-width="2" stroke-miterlimit="10" x1="1071.532" y1="50" x2="1071.532" y2="1150"/>
		<linearGradient id="SVGID_42_" gradientUnits="userSpaceOnUse" x1="1096.0911" y1="600" x2="1098.0911" y2="600">
			<stop  offset="0" style="stop-color:#D66D75"/>
			<stop  offset="1" style="stop-color:#E29587"/>
		</linearGradient>
		
			<line clip-path="url(#SVGID_2_)" fill="none" stroke="url(#SVGID_42_)" stroke-width="2" stroke-miterlimit="10" x1="1097.091" y1="50" x2="1097.091" y2="1150"/>
		<linearGradient id="SVGID_43_" gradientUnits="userSpaceOnUse" x1="1121.6495" y1="600" x2="1123.6495" y2="600">
			<stop  offset="0" style="stop-color:#D66D75"/>
			<stop  offset="1" style="stop-color:#E29587"/>
		</linearGradient>
		
			<line clip-path="url(#SVGID_2_)" fill="none" stroke="url(#SVGID_43_)" stroke-width="2" stroke-miterlimit="10" x1="1122.65" y1="50" x2="1122.65" y2="1150"/>
	</g>
	<linearGradient id="SVGID_44_" gradientUnits="userSpaceOnUse" x1="63.0745" y1="624.6073" x2="1107.3947" y2="624.6073">
		<stop  offset="0" style="stop-color:#D66D75"/>
		<stop  offset="1" style="stop-color:#E29587"/>
	</linearGradient>
	<path fill="url(#SVGID_44_)" d="M1103.019,843.297c-8.515-31.183-28.799-57.54-47.137-84.159
		c-31.79-46.147-77.164-100.82-74.505-161.295c3.374-76.733,15.108-151.941,11.262-229.45c-1.428-28.787-4.555-58.414-18.326-83.734
		c-20.328-37.376-62.01-59.997-104.281-64.828c-42.271-4.83-85.002,6.164-124.062,23.032
		c-39.06,16.868-75.297,39.522-112.804,59.609c-43.826,23.471-89.57,43.722-136.611,59.848
		c-42.379,14.528-97.251-2.701-140.426-11.368c-72.573-14.569-151.916-34.668-217.286,0.059
		c-40.871,21.712-74.274,68.891-75.716,116.054c-0.603,19.705,4.18,39.453,4.182,59.284c0.004,32.285-0.256,64.464,1.204,96.736
		c1.369,30.247,3.855,61.209,16.476,88.731c22.36,48.762,77.851,80.074,131.151,74.005c26.472-3.014,51.23-14.132,76.779-21.688
		c69.647-20.599,146.987-13.883,212.04,18.414c35.071,17.412,66.242,41.692,96.218,66.884
		c50.942,42.812,99.515,88.977,155.652,124.708c56.136,35.731,121.736,60.817,188.085,55.737
		c66.349-5.081,132.468-45.372,154.656-108.107C1108.435,896.701,1110.023,868.946,1103.019,843.297z"/>
	<linearGradient id="SVGID_45_" gradientUnits="userSpaceOnUse" x1="359.5224" y1="847.1841" x2="454.4262" y2="847.1841">
		<stop  offset="0" style="stop-color:#D66D75"/>
		<stop  offset="1" style="stop-color:#E29587"/>
	</linearGradient>
	<circle fill="url(#SVGID_45_)" cx="406.974" cy="847.184" r="47.452"/>
	<linearGradient id="SVGID_46_" gradientUnits="userSpaceOnUse" x1="1000.6275" y1="584.1796" x2="1077.7368" y2="584.1796">
		<stop  offset="0" style="stop-color:#D66D75"/>
		<stop  offset="1" style="stop-color:#E29587"/>
	</linearGradient>
	<path fill="url(#SVGID_46_)" d="M1071.301,595.79c14.736,21.671,2.986,47.452-23.221,47.452c-26.207,0-47.452-21.245-47.452-47.452
		c0-26.207,22.255-70.673,48.461-70.673C1075.296,525.117,1054.137,570.55,1071.301,595.79z"/>
	<linearGradient id="SVGID_47_" gradientUnits="userSpaceOnUse" x1="454.4262" y1="293.9155" x2="504.9069" y2="293.9155">
		<stop  offset="0" style="stop-color:#D66D75"/>
		<stop  offset="1" style="stop-color:#E29587"/>
	</linearGradient>
	<circle fill="url(#SVGID_47_)" cx="479.667" cy="293.915" r="25.24"/>
</g>
</svg>
